# xmcd
#
# Track frame offsets:
#	150
#	18252
#	34823
#	56271
#	72909
#	90195
#	108720
#	125780
#	144326
#	162347
#	183210
#	201014
#	221380
#	241978
#	262276
#	280691
#	303738
#	321375
#	338775
#
# Disc length: 4744
#
# Revision: 2
# Processed by: cddbd v1.5.1PL0 Copyright (c) Steve Scherf et al.
# Submitted via: FreeDB 11.6
# Normalized: r1:DSETVAR1
#
DISCID=17128613
DTITLE=Various Artist - The Soul Of The Nineties
DYEAR=2000
DGENRE=R&B
TTITLE0=Eternal - Stay
TTITLE1=Charles and Eddie - Would I lie to you
TTITLE2=Jade - Don't walk away
TTITLE3=Dream Warriors - Wash your face in my sink
TTITLE4=Tony Di Bart - The real thing
TTITLE5=Beverly Knight - Flavour of the old school
TTITLE6=Alison Limerick - Where love live
TTITLE7=Innocence - Natural thing
TTITLE8=Color Me Badd - I wanna sex you up
TTITLE9=Lisa Stansfield - Live together
TTITLE10=Kenny Thomas - Thinking about your love
TTITLE11=Sara Nelson - Uptight
TTITLE12=Mica Paris - I never felt like this before
TTITLE13=Massivo featuring Tracy - Loving you
TTITLE14=Juliet Roberts - So good
TTITLE15=Lulu with Bobby Womack - I'm back for more
TTITLE16=Richard Darbyshire - This I swear
TTITLE17=Sinclair - Ain't no Casanova
TTITLE18=Strike - U sure do
EXTD=
EXTT0=
EXTT1=
EXTT2=
EXTT3=
EXTT4=
EXTT5=
EXTT6=
EXTT7=
EXTT8=
EXTT9=
EXTT10=
EXTT11=
EXTT12=
EXTT13=
EXTT14=
EXTT15=
EXTT16=
EXTT17=
EXTT18=
PLAYORDER=
